<?xml version="1.0" encoding="UTF-8"?>
<!DOCTYPE svg PUBLIC "-//W3C//DTD SVG 1.1//EN" "http://www.w3.org/Graphics/SVG/1.1/DTD/svg11.dtd">
<!-- Creator: CorelDRAW X6 -->
<svg xmlns="http://www.w3.org/2000/svg" xml:space="preserve" width="210mm" height="297mm" version="1.1" style="shape-rendering:geometricPrecision; text-rendering:geometricPrecision; image-rendering:optimizeQuality; fill-rule:evenodd; clip-rule:evenodd"
viewBox="0 0 21000 29700"
 xmlns:xlink="http://www.w3.org/1999/xlink">
 <defs>
  <style type="text/css">
   <![CDATA[
    .fil11 {fill:#2B2A29}
    .fil8 {fill:#434242}
    .fil3 {fill:#B2B3B3}
    .fil7 {fill:#D9DADA}
    .fil6 {fill:#EBECEC}
    .fil0 {fill:url(#id0)}
    .fil2 {fill:url(#id1)}
    .fil1 {fill:url(#id2)}
    .fil5 {fill:url(#id3)}
    .fil4 {fill:url(#id4)}
    .fil9 {fill:url(#id5)}
    .fil10 {fill:url(#id6)}
   ]]>
  </style>
  <linearGradient id="id0" gradientUnits="userSpaceOnUse" x1="14851.4" y1="19536.8" x2="6193.81" y2="24535.2">
   <stop offset="0" style="stop-color:#2B2A29"/>
   <stop offset="0.6" style="stop-color:#434242"/>
   <stop offset="1" style="stop-color:#5B5B5B"/>
  </linearGradient>
  <linearGradient id="id1" gradientUnits="userSpaceOnUse" x1="15376" y1="3029.51" x2="11743.9" y2="18762">
   <stop offset="0" style="stop-color:#C5C6C6"/>
   <stop offset="1" style="stop-color:#EBECEC"/>
  </linearGradient>
  <linearGradient id="id2" gradientUnits="userSpaceOnUse" xlink:href="#id1" x1="5214.74" y1="3107.02" x2="9665.45" y2="18684.5">
  </linearGradient>
  <linearGradient id="id3" gradientUnits="userSpaceOnUse" x1="11898.1" y1="18448.8" x2="13183.5" y2="22931.5">
   <stop offset="0" style="stop-color:#EBECEC"/>
   <stop offset="1" style="stop-color:#C5C6C6"/>
  </linearGradient>
  <linearGradient id="id4" gradientUnits="userSpaceOnUse" xlink:href="#id3" x1="7836.92" y1="18446.3" x2="9098.33" y2="22861.3">
  </linearGradient>
  <linearGradient id="id5" gradientUnits="userSpaceOnUse" xlink:href="#id0" x1="5778.83" y1="26310.4" x2="8742.12" y2="23347.1">
  </linearGradient>
  <linearGradient id="id6" gradientUnits="userSpaceOnUse" x1="11491.4" y1="23588.5" x2="9561.18" y2="26881.3">
   <stop offset="0" style="stop-color:#2B2A29"/>
   <stop offset="0.988235" style="stop-color:#373635"/>
   <stop offset="1" style="stop-color:#434242"/>
  </linearGradient>
 </defs>
 <g id="Layer_x0020_1">
  <metadata id="CorelCorpID_0Corel-Layer"/>
  <polygon class="fil0" points="6191,21499 7460,21119 8730,20740 10525,20740 12319,20741 13588,21120 14862,21499 14860,22573 13585,22953 12315,23332 10521,23332 8726,23331 7457,22952 6189,22572 6190,22035 "/>
  <path class="fil1" d="M8602 3303c-266,-107 -3690,-66 -3697,-44 2119,3003 3223,8564 3718,15047 0,0 715,227 1268,290 85,-2379 -858,-15247 -1288,-15293z"/>
  <path class="fil2" d="M12398 3303c266,-107 3690,-66 3697,-44 -2119,3003 -3223,8564 -3718,15047 0,0 -715,227 -1268,290 -85,-2379 858,-15247 1288,-15293z"/>
  <path class="fil3" d="M9890 18596c413,17 819,18 1220,0 -85,-2379 858,-15247 1288,-15293 -1256,-85 -2521,-85 -3795,0 430,46 1373,12914 1288,15293z"/>
  <path class="fil4" d="M9433 22761c-557,-107 -2473,-802 -2480,-807 1222,-1927 1171,-1898 1670,-3407 0,0 724,280 1276,263 84,633 -296,3550 -466,3951z"/>
  <path class="fil5" d="M11505 22834c557,-107 2553,-875 2559,-880 -1222,-1927 -1188,-1898 -1687,-3407 0,0 -724,280 -1276,263 -84,633 234,3623 403,4024z"/>
  <path class="fil3" d="M11763 22688l-2509 0c161,-338 729,-3237 644,-3879 400,-5 790,-5 1203,0 -85,642 500,3540 661,3879z"/>
  <path class="fil6" d="M8493 3035c-221,-107 -3362,11 -3368,34l-220 190c7,-22 3254,-61 3669,36l0 0c5,1 10,3 15,4l0 0c-35,-166 -67,-260 -97,-264z"/>
  <path class="fil6" d="M11649 3035c221,-107 3500,-41 3506,-19l934 241c-147,-22 -3432,-59 -3692,46l-1 0 -1 0c-18,-1 -36,-2 -53,-4l-1 0 -1 0 -1 0 -1 0 -1 0 -1 0 -1 0c-18,-1 -36,-2 -55,-4l-1 0 -1 0 0 0 -1 0 -1 0 -1 0c-18,-1 -36,-2 -53,-3l-1 0 0 0 -4 0 -1 0c-17,-1 -34,-2 -50,-3l-1 0 -1 0 -1 0 -5 0 -1 0c-17,-1 -34,-2 -51,-3l-1 0 -1 0 -6 0 0 0c-16,-1 -33,-2 -49,-3l-1 0 0 0 -10 -1 0 0 -1 0c-15,-1 -30,-2 -45,-2l-1 0 -1 0 -1 0 -13 -1 0 0 -1 0 -1 0 -1 0 -1 0c-13,-1 -26,-1 -38,-2l-1 0 -1 0 -1 0 -16 -1 0 0 -1 0c-14,-1 -27,-1 -41,-2l-1 0 -1 0 -1 0 -17 -1 0 0 -1 0 -1 0c-12,-1 -24,-1 -37,-2l-1 0 -1 0 -1 0 -21 -1 0 0 -1 0 -1 0 -1 0c-11,-1 -22,-1 -33,-1l-1 0 -1 0 -1 0 -1 0 -1 0 -22 -1 0 0 -1 0 -1 0 -1 0c-11,0 -21,-1 -32,-1l-1 0 -1 0 -1 0 0 0 -25 -1 -1 0 -1 0 -1 0 -1 0 -1 0 -1 0c-9,0 -19,-1 -28,-1l-1 0 -1 0 -1 0 -1 0 -1 0 0 0 -24 -1 0 0 -1 0 -1 0c-10,0 -20,-1 -30,-1l-1 0 -1 0 -1 0 -1 0 -1 0 -1 0 -25 -1c32,-142 61,-220 88,-224z"/>
  <path class="fil7" d="M8602 3303c-4,-1 -8,-3 -13,-4 -35,-166 -67,-260 -97,-264 1060,-85 2112,-85 3156,0 -27,4 -57,82 -88,224 -980,-37 -1966,-22 -2958,44z"/>
  <path class="fil3" d="M11763 22688l1 431 2414 -794 -113 -372c-7,5 -1744,627 -2301,734z"/>
  <path class="fil3" d="M9254 22688l-1 431 -2414 -794 113 -372c7,5 1744,627 2301,734z"/>
  <polygon class="fil8" points="15111,22930 14860,22573 14862,21499 15109,21756 "/>
  <polygon class="fil8" points="5942,22930 6192,22572 6191,21499 5944,21756 "/>
  <polygon class="fil8" points="8582,23741 8732,23331 10526,23331 12321,23331 12470,23741 "/>
  <polygon class="fil3" points="9254,23120 9254,22688 10526,22688 11763,22688 11763,23120 "/>
  <polygon class="fil8" points="12318,23331 12470,23741 15111,22930 14860,22573 "/>
  <polygon class="fil8" points="8732,23331 8582,23741 5942,22930 6192,22572 "/>
  <polygon class="fil9" points="5939,25916 5942,22930 8582,23741 8582,26728 "/>
  <polygon class="fil10" points="8582,26728 12470,26729 12470,23741 8582,23741 "/>
  <polygon class="fil11" points="12464,26728 15105,25917 15111,22930 12470,23741 "/>
  <path class="fil6" d="M8623 18306l0 241c0,0 724,280 1276,263 3,-107 -8,-214 -8,-214 -552,-64 -1268,-290 -1268,-290z"/>
  <path class="fil6" d="M12377 18306l0 241c0,0 -724,280 -1276,263 -3,-107 8,-214 8,-214 552,-64 1268,-290 1268,-290z"/>
  <path class="fil6" d="M11101 18810c-3,-107 8,-214 8,-214 -400,18 -806,17 -1220,0 0,0 11,106 8,214 400,-5 790,-5 1203,0z"/>
 </g>
</svg>
